{
  "asset": {
    "generator": "Khronos glTF Blender I/O v3.6.27",
    "version": "2.0"
  },
  "scene": 0,
  "scenes": [
    {
      "name": "Scene",
      "nodes": [
        0,
        1
      ]
    }
  ],
  "nodes": [
    {
      "mesh": 0,
      "name": "Lights_Mesh",
      "rotation": [
        0.7071068286895752,
        0,
        0,
        0.7071068286895752
      ],
      "scale": [
        0.12892423570156097,
        0.12892423570156097,
        0.12892423570156097
      ]
    },
    {
      "mesh": 1,
      "name": "LightBake_Mesh",
      "rotation": [
        0.7071068286895752,
        0,
        0,
        0.7071068286895752
      ],
      "scale": [
        0.12892423570156097,
        0.12892423570156097,
        0.12892423570156097
      ]
    }
  ],
  "materials": [
    {
      "doubleSided": true,
      "emissiveFactor": [
        0.38151898980140686,
        0.44766721129417419,
        0.5
      ],
      "name": "Glow",
      "pbrMetallicRoughness": {
        "baseColorFactor": [
          0.800000011920929,
          0.800000011920929,
          0.800000011920929,
          1
        ],
        "metallicFactor": 0,
        "roughnessFactor": 0.5
      }
    },
    {
      "doubleSided": true,
      "name": "LightBake_Batch1_Material",
      "normalTexture": {
        "index": 0
      },
      "pbrMetallicRoughness": {
        "baseColorTexture": {
          "index": 1
        },
        "metallicRoughnessTexture": {
          "index": 2
        }
      }
    },
    {
      "doubleSided": true,
      "name": "LightBake_Batch2_Material",
      "normalTexture": {
        "index": 3
      },
      "pbrMetallicRoughness": {
        "baseColorTexture": {
          "index": 4
        },
        "metallicRoughnessTexture": {
          "index": 5
        }
      }
    },
    {
      "doubleSided": true,
      "name": "LightBake_Batch3_Material",
      "normalTexture": {
        "index": 6
      },
      "pbrMetallicRoughness": {
        "baseColorTexture": {
          "index": 7
        },
        "metallicRoughnessTexture": {
          "index": 8
        }
      }
    }
  ],
  "meshes": [
    {
      "name": "Mesh.001",
      "primitives": [
        {
          "attributes": {
            "POSITION": 0,
            "NORMAL": 1,
            "TEXCOORD_0": 2,
            "TEXCOORD_1": 3
          },
          "indices": 4,
          "material": 0
        }
      ]
    },
    {
      "name": "Mesh.003",
      "primitives": [
        {
          "attributes": {
            "POSITION": 5,
            "NORMAL": 6,
            "TEXCOORD_0": 7
          },
          "indices": 8,
          "material": 1
        },
        {
          "attributes": {
            "POSITION": 9,
            "NORMAL": 10,
            "TEXCOORD_0": 11
          },
          "indices": 12,
          "material": 2
        },
        {
          "attributes": {
            "POSITION": 13,
            "NORMAL": 14,
            "TEXCOORD_0": 15
          },
          "indices": 16,
          "material": 3
        }
      ]
    }
  ],
  "textures": [
    {
      "sampler": 0,
      "source": 0
    },
    {
      "sampler": 0,
      "source": 1
    },
    {
      "sampler": 0,
      "source": 2
    },
    {
      "sampler": 0,
      "source": 3
    },
    {
      "sampler": 0,
      "source": 4
    },
    {
      "sampler": 0,
      "source": 5
    },
    {
      "sampler": 0,
      "source": 6
    },
    {
      "sampler": 0,
      "source": 7
    },
    {
      "sampler": 0,
      "source": 8
    }
  ],
  "images": [
    {
      "name": "LightBake_Batch1_Normal",
      "uri": "3DRoomBake_image0.jpg"
    },
    {
      "name": "LightBake_Batch1_LightBake_Diffuse",
      "uri": "3DRoomBake_image1.jpg"
    },
    {
      "name": "LightBake_Batch1_ORM",
      "uri": "3DRoomBake_image2.jpg"
    },
    {
      "name": "LightBake_Batch2_Normal",
      "uri": "3DRoomBake_image3.jpg"
    },
    {
      "name": "LightBake_Batch2_LightBake_Diffuse",
      "uri": "3DRoomBake_image4.jpg"
    },
    {
      "name": "LightBake_Batch2_ORM",
      "uri": "3DRoomBake_image5.jpg"
    },
    {
      "name": "LightBake_Batch3_Normal",
      "uri": "3DRoomBake_image6.jpg"
    },
    {
      "name": "LightBake_Batch3_LightBake_Diffuse",
      "uri": "3DRoomBake_image7.jpg"
    },
    {
      "name": "LightBake_Batch3_ORM",
      "uri": "3DRoomBake_image8.jpg"
    }
  ],
  "accessors": [
    {
      "bufferView": 0,
      "componentType": 5126,
      "count": 4846,
      "max": [
        6.4236617088317871,
        4.1399726867675781,
        -5.3638601303100586
      ],
      "min": [
        -6.1402277946472168,
        -11.971924781799316,
        -18.985198974609375
      ],
      "type": "VEC3"
    },
    {
      "bufferView": 1,
      "componentType": 5126,
      "count": 4846,
      "type": "VEC3"
    },
    {
      "bufferView": 2,
      "componentType": 5126,
      "count": 4846,
      "type": "VEC2"
    },
    {
      "bufferView": 3,
      "componentType": 5126,
      "count": 4846,
      "type": "VEC2"
    },
    {
      "bufferView": 4,
      "componentType": 5123,
      "count": 12750,
      "type": "SCALAR"
    },
    {
      "bufferView": 5,
      "componentType": 5126,
      "count": 427,
      "max": [
        24.2772159576416,
        18.877639770507812,
        -9.1475937237614924E-16
      ],
      "min": [
        -12,
        -12.505403518676758,
        -24
      ],
      "type": "VEC3"
    },
    {
      "bufferView": 6,
      "componentType": 5126,
      "count": 427,
      "type": "VEC3"
    },
    {
      "bufferView": 7,
      "componentType": 5126,
      "count": 427,
      "type": "VEC2"
    },
    {
      "bufferView": 8,
      "componentType": 5123,
      "count": 1068,
      "type": "SCALAR"
    },
    {
      "bufferView": 9,
      "componentType": 5126,
      "count": 7945,
      "max": [
        24.023637771606445,
        18.735570907592773,
        -1.6096861663690218E-15
      ],
      "min": [
        -12,
        -12.25,
        -20.137060165405273
      ],
      "type": "VEC3"
    },
    {
      "bufferView": 10,
      "componentType": 5126,
      "count": 7945,
      "type": "VEC3"
    },
    {
      "bufferView": 11,
      "componentType": 5126,
      "count": 7945,
      "type": "VEC2"
    },
    {
      "bufferView": 12,
      "componentType": 5123,
      "count": 28014,
      "type": "SCALAR"
    },
    {
      "bufferView": 13,
      "componentType": 5126,
      "count": 228543,
      "max": [
        24.583711624145508,
        16.885173797607422,
        -0.43806812167167664
      ],
      "min": [
        -11.527316093444824,
        -12.392629623413086,
        -24.000028610229492
      ],
      "type": "VEC3"
    },
    {
      "bufferView": 14,
      "componentType": 5126,
      "count": 228543,
      "type": "VEC3"
    },
    {
      "bufferView": 15,
      "componentType": 5126,
      "count": 228543,
      "type": "VEC2"
    },
    {
      "bufferView": 16,
      "componentType": 5125,
      "count": 510930,
      "type": "SCALAR"
    }
  ],
  "bufferViews": [
    {
      "buffer": 0,
      "byteLength": 58152,
      "byteOffset": 0,
      "target": 34962
    },
    {
      "buffer": 0,
      "byteLength": 58152,
      "byteOffset": 58152,
      "target": 34962
    },
    {
      "buffer": 0,
      "byteLength": 38768,
      "byteOffset": 116304,
      "target": 34962
    },
    {
      "buffer": 0,
      "byteLength": 38768,
      "byteOffset": 155072,
      "target": 34962
    },
    {
      "buffer": 0,
      "byteLength": 25500,
      "byteOffset": 193840,
      "target": 34963
    },
    {
      "buffer": 0,
      "byteLength": 5124,
      "byteOffset": 219340,
      "target": 34962
    },
    {
      "buffer": 0,
      "byteLength": 5124,
      "byteOffset": 224464,
      "target": 34962
    },
    {
      "buffer": 0,
      "byteLength": 3416,
      "byteOffset": 229588,
      "target": 34962
    },
    {
      "buffer": 0,
      "byteLength": 2136,
      "byteOffset": 233004,
      "target": 34963
    },
    {
      "buffer": 0,
      "byteLength": 95340,
      "byteOffset": 235140,
      "target": 34962
    },
    {
      "buffer": 0,
      "byteLength": 95340,
      "byteOffset": 330480,
      "target": 34962
    },
    {
      "buffer": 0,
      "byteLength": 63560,
      "byteOffset": 425820,
      "target": 34962
    },
    {
      "buffer": 0,
      "byteLength": 56028,
      "byteOffset": 489380,
      "target": 34963
    },
    {
      "buffer": 0,
      "byteLength": 2742516,
      "byteOffset": 545408,
      "target": 34962
    },
    {
      "buffer": 0,
      "byteLength": 2742516,
      "byteOffset": 3287924,
      "target": 34962
    },
    {
      "buffer": 0,
      "byteLength": 1828344,
      "byteOffset": 6030440,
      "target": 34962
    },
    {
      "buffer": 0,
      "byteLength": 2043720,
      "byteOffset": 7858784,
      "target": 34963
    }
  ],
  "samplers": [
    {
      "magFilter": 9729,
      "minFilter": 9987
    }
  ],
  "buffers": [
    {
      "byteLength": 9902504,
      "uri": "3DRoomBake.bin"
    }
  ]
}